
      <svg data-logo="logo" xmlns="http://www.w3.org/2000/svg" viewBox="0 0 94 42">
        <g id="logogram" transform="translate(0, 1) rotate(0) "><path d="M13.0964 20.3536L17.6262 22.4473L17.046 27.6527L8.94876 36.8282C4.2486 33.8023 0.898178 28.8615 0 23.108L13.0964 20.3536Z" fill="#15E3FF"/><path d="M25.183 25.94L31.2414 36.3789C27.992 38.6605 24.0331 40 19.7612 40C18.3744 40 17.0206 39.8587 15.7133 39.59L17.046 27.6527L20.4765 23.7656L25.183 25.94Z" fill="#348DFC"/><path d="M39.1022 14.881C39.5332 16.5143 39.763 18.2294 39.763 19.9982C39.763 24.1145 38.5192 27.9403 36.3874 31.1207L25.184 25.9405L22.5551 21.4123L25.8574 17.6692L39.1022 14.881Z" fill="#FD4873"/><path d="M17.046 27.6524L17.0458 27.6527L17.1686 26.552L17.046 27.6524Z" fill="#FFC700"/><path d="M20.132 0C26.1505 0.109415 31.5194 2.877 35.1148 7.17842L25.8561 17.6694L20.9792 18.6959L18.519 14.4574L20.132 0Z" fill="#FFC700"/><path d="M18.519 14.4574L17.9745 19.3269L13.0991 20.353L0.514709 14.5347C2.09964 8.94044 6.05794 4.3436 11.2327 1.9007L18.519 14.4574Z" fill="#00E7B9"/></g>
        <g id="logotype" transform="translate(46, 5.5)"><path fill="#ffffff" d="M14.34 31.27L14.34 31.27Q11.08 31.27 9.08 29.24Q7.09 27.21 7.09 23.55L7.09 23.55L7.09 9.67Q7.09 5.30 8.83 2.97Q10.56 0.65 14.48 0.65L14.48 0.65Q16.61 0.65 18.28 1.43Q19.95 2.22 20.90 3.78Q21.86 5.35 21.86 7.72L21.86 7.72L21.86 12.92L15.88 12.92L15.88 8.48Q15.88 7.13 15.54 6.66Q15.19 6.19 14.48 6.19L14.48 6.19Q13.64 6.19 13.35 6.79Q13.06 7.40 13.06 8.41L13.06 8.41L13.06 23.46Q13.06 24.71 13.43 25.22Q13.79 25.74 14.48 25.74L14.48 25.74Q15.25 25.74 15.56 25.10Q15.88 24.47 15.88 23.46L15.88 23.46L15.88 18.05L21.93 18.05L21.93 23.74Q21.93 27.70 19.93 29.49Q17.93 31.27 14.34 31.27ZM29.36 31L23.93 31L23.93 0.92L33.09 0.92L35.62 19.26L38.13 0.92L47.37 0.92L47.37 31L41.87 31L41.87 9.33L38.42 31L33.02 31L29.36 9.33L29.36 31Z"/></g>
        
      </svg>
    